<?xml version="1.0" standalone="no"?>
<!DOCTYPE svg PUBLIC "-//W3C//DTD SVG 1.1//EN" "http://www.w3.org/Graphics/SVG/1.1/DTD/svg11.dtd">
<svg version="1.1" xmlns="http://www.w3.org/2000/svg" viewBox="0 0 120.20219480501328 142.58993878707406" width="120.20219480501328" height="142.58993878707406"><!-- svg-source:excalidraw --><metadata></metadata><defs><style class="style-fonts">
      </style></defs><g stroke-linecap="round" transform="translate(10 10) rotate(0 50.10109740250664 37.97987656987425)"><path d="M18.99 0 C36.45 -1.51, 55.89 -1.47, 81.21 0 C96.88 -0.57, 96.73 7.59, 100.2 18.99 C100.98 28.54, 99.24 46.15, 100.2 56.97 C103.74 71.7, 96.73 74.84, 81.21 75.96 C60.39 75.98, 39.71 74.71, 18.99 75.96 C3.18 74.2, 3.04 67.61, 0 56.97 C0.62 39.34, 2.46 24.4, 0 18.99 C-1.56 8.78, 5.25 -0.79, 18.99 0" stroke="none" stroke-width="0" fill="#ffffff"></path><path d="M18.99 0 C33.39 1.37, 48.33 -0.44, 81.21 0 M18.99 0 C32.06 -0.11, 46.2 0.22, 81.21 0 M81.21 0 C92.19 -0.89, 102.05 6.17, 100.2 18.99 M81.21 0 C95.45 1.48, 101.93 6.74, 100.2 18.99 M100.2 18.99 C101.57 30.77, 102.1 44.55, 100.2 56.97 M100.2 18.99 C100.74 33.33, 100.28 45.77, 100.2 56.97 M100.2 56.97 C99.53 70.25, 93.22 77.78, 81.21 75.96 M100.2 56.97 C99.21 71.25, 95.37 77.4, 81.21 75.96 M81.21 75.96 C66.98 77.6, 51.85 75.58, 18.99 75.96 M81.21 75.96 C59.97 76.24, 37.93 76.52, 18.99 75.96 M18.99 75.96 C5.54 76.16, -0.39 70.63, 0 56.97 M18.99 75.96 C7.66 77.42, 2.26 68.74, 0 56.97 M0 56.97 C0.54 42.88, 2.14 28.52, 0 18.99 M0 56.97 C0.4 50.18, 0.64 41.21, 0 18.99 M0 18.99 C1.38 4.41, 5.67 1.99, 18.99 0 M0 18.99 C0.65 8.24, 4.36 1.27, 18.99 0" stroke="#ffffff" stroke-width="2" fill="none"></path></g><g stroke-linecap="round"><g transform="translate(34.603705456369426 72.56446711711396) rotate(0 24.037888658273005 30.01273583498005)" fill-rule="evenodd"><path d="M-1.56 -1.31 L27.87 59.56 L49.54 8.78 L0.88 -1.54" stroke="none" stroke-width="0" fill="#ffffff" fill-rule="evenodd"></path><path d="M0 0 C7.04 14.35, 15.46 29.14, 29.01 60.03 M0 0 C5.35 13.78, 12.32 26.43, 29.01 60.03 M29.01 60.03 C34.59 42.8, 39.64 29.86, 48.08 9.94 M29.01 60.03 C35.6 42.38, 43.25 24.57, 48.08 9.94 M48.08 9.94 C36.77 7.81, 25.41 4.3, 0 0 M48.08 9.94 C38.29 7.47, 27.67 5.27, 0 0 M0 0 C0 0, 0 0, 0 0 M0 0 C0 0, 0 0, 0 0" stroke="#ffffff" stroke-width="2" fill="none"></path></g></g><mask></mask></svg>